Coordinates
version=1
nRows=8
nColumns=40
inDegrees=yes

Units are S.I. units (second, meters, Newtons, ...)
Angles are in degrees.

endheader
time	pelvis_tilt	pelvis_list	pelvis_rotation	pelvis_tx	pelvis_ty	pelvis_tz	hip_flexion_r	hip_adduction_r	hip_rotation_r	knee_angle_r	knee_angle_r_beta	ankle_angle_r	subtalar_angle_r	mtp_angle_r	hip_flexion_l	hip_adduction_l	hip_rotation_l	knee_angle_l	knee_angle_l_beta	ankle_angle_l	subtalar_angle_l	mtp_angle_l	lumbar_extension	lumbar_bending	lumbar_rotation	arm_flex_r	arm_add_r	arm_rot_r	elbow_flex_r	pro_sup_r	wrist_flex_r	wrist_dev_r	arm_flex_l	arm_add_l	arm_rot_l	elbow_flex_l	pro_sup_l	wrist_flex_l	wrist_dev_l
     37.85000000	     -2.95107169	     -6.65320221	      6.78329420	      1.11391817	      0.92522032	      0.47840357	      0.39085979	      5.47591508	    -18.18392445	      8.96957705	      8.96957705	     13.66017600	      5.09738344	     -6.74634631	     29.81419405	    -10.97865655	     -1.62130746	     24.82600596	     24.82600596	      4.68537164	    -10.88204000	      7.80727112	     -9.22798571	      7.39121654	      3.41311670	     42.08825236	    -17.88315159	     -7.68398593	     97.50786829	     44.54361457	      0.00000000	      0.00000000	    -11.00141698	     -5.39650511	     -0.45815394	     25.34104646	     44.95167369	      0.00000000	      0.00000000
     37.86371429	     -2.85639385	     -6.82889659	      6.67564036	      1.11487544	      0.92431393	      0.47644553	     -0.23559476	      5.58264883	    -18.24089367	      8.86087597	      8.86087597	     14.12794263	      5.63086478	     -6.35960993	     29.36087159	    -11.01740469	     -1.51206563	     25.48109801	     25.48109801	      4.79240154	    -11.77606799	      7.20848896	     -9.16449844	      7.55822563	      3.31526089	     41.48601664	    -17.29237129	     -8.38843682	     99.01859796	     44.53040042	      0.00000000	      0.00000000	    -11.70890444	     -5.53629264	      0.00953187	     26.15446572	     44.85908463	      0.00000000	      0.00000000
     37.87742857	     -2.87183569	     -6.78417760	      6.46146617	      1.11573363	      0.92343130	      0.47438286	     -0.45112173	      5.32515499	    -18.02074034	      9.38493671	      9.38493671	     14.96258434	      5.70085336	     -5.52624320	     28.81924725	    -10.86064606	     -1.57085067	     25.82355064	     25.82355064	      4.88500904	    -12.49294261	      6.38564045	     -8.97550653	      7.40690796	      3.80504841	     40.38325280	    -17.45661101	     -9.37442677	     99.93459786	     44.56231319	      0.00000000	      0.00000000	    -12.18337311	     -5.91085971	      1.12524201	     27.35014430	     44.68795091	      0.00000000	      0.00000000
     37.89114286	     -2.80526809	     -6.77681269	      6.31941947	      1.11664085	      0.92270340	      0.47209182	     -0.88647002	      5.16271244	    -17.81116501	      9.59679775	      9.59679775	     15.32969059	      5.66367172	     -5.57577506	     28.33981285	    -10.75094677	     -1.57110279	     26.33459590	     26.33459590	      5.38780100	    -12.92248879	      6.12379341	     -8.84157077	      7.34241514	      3.66650882	     39.72370970	    -17.31621339	     -9.34282101	     99.87291717	     44.56328756	      0.00000000	      0.00000000	    -12.36409997	     -6.02345387	      1.20380536	     27.28563451	     44.67592059	      0.00000000	      0.00000000
     37.90485714	     -2.73772892	     -6.71152519	      6.20245932	      1.11745721	      0.92204987	      0.46955184	     -1.23153028	      4.89420134	    -17.58477670	      9.98369221	      9.98369221	     15.71773209	      5.48840628	     -5.58288485	     27.94090105	    -10.55649193	     -1.47557188	     26.89542038	     26.89542038	      5.93583568	    -13.38981874	      5.83211952	     -8.74721973	      7.22292857	      3.47631991	     38.84778097	    -17.16311329	     -9.37013965	     99.78708729	     44.56641014	      0.00000000	      0.00000000	    -12.40497342	     -6.17361932	      1.26504837	     27.30348826	     44.66949117	      0.00000000	      0.00000000
     37.91857143	     -2.84775758	     -6.57261915	      6.07716130	      1.11797073	      0.92128004	      0.46684856	     -1.06117656	      4.43427424	    -17.16187443	     11.00064243	     11.00064243	     16.39535524	      4.81306010	     -5.10000172	     27.75511836	    -10.21915633	     -1.25462363	     27.38734133	     27.38734133	      6.38548281	    -14.03129423	      5.62275004	     -8.49359703	      7.02636145	      3.52204323	     37.69542902	    -17.17602952	     -9.95147351	     99.87614885	     44.59133229	      0.00000000	      0.00000000	    -12.23380843	     -6.40325919	      1.50003994	     27.56520416	     44.65419716	      0.00000000	      0.00000000
     37.93228571	     -2.72376271	     -6.47040289	      6.03629533	      1.11864746	      0.92101340	      0.46391373	     -1.48732795	      4.11808368	    -16.99724253	     11.31460333	     11.31460333	     16.61470206	      4.67465978	     -5.07246703	     27.37647957	     -9.96686276	     -1.09758565	     27.90744551	     27.90744551	      7.01473128	    -14.34455060	      5.31345348	     -8.53156345	      6.89361399	      3.22048215	     36.68377291	    -17.02582622	     -9.93411863	     99.64841912	     44.59564942	      0.00000000	      0.00000000	    -11.98935803	     -6.55545778	      1.51326444	     27.63918617	     44.65915040	      0.00000000	      0.00000000
     37.94600000	     -2.58650045	     -6.31747150	      6.00787170	      1.11924877	      0.92091288	      0.46076342	     -1.78029266	      3.69308811	    -16.83987887	     11.91987487	     11.91987487	     16.84203446	      4.34884004	     -4.99983500	     27.03112612	     -9.66318158	     -1.01345276	     28.47080226	     28.47080226	      7.56797845	    -14.66917358	      5.05247555	     -8.56960396	      6.74114943	      2.96046820	     35.32916689	    -16.91746392	     -9.98372423	     99.22876969	     44.60761437	      0.00000000	      0.00000000	    -11.62622285	     -6.78753622	      1.50949018	     27.75176755	     44.67026662	      0.00000000	      0.00000000
